<svg width="218" height="48" viewBox="0 0 218 48" fill="none" xmlns="http://www.w3.org/2000/svg">
<path fill-rule="evenodd" clip-rule="evenodd" d="M4.71971 29.0628C5.71755 30.0549 5.71754 31.6634 4.71967 32.6555L4.66857 32.7063C3.6707 33.6984 2.05286 33.6984 1.05501 32.7063C0.0571691 31.7142 0.0571845 30.1057 1.05505 29.1136L1.10615 29.0628C2.10402 28.0707 3.72186 28.0707 4.71971 29.0628Z" fill="white"/>
<path fill-rule="evenodd" clip-rule="evenodd" d="M16.7323 29.828C17.7283 30.8219 17.7254 32.4304 16.7257 33.4207L9.64792 40.4322C8.64826 41.4225 7.03042 41.4196 6.03437 40.4257C5.03832 39.4319 5.04125 37.8234 6.04091 36.8331L13.1187 29.8215C14.1184 28.8312 15.7362 28.8341 16.7323 29.828Z" fill="white"/>
<path fill-rule="evenodd" clip-rule="evenodd" d="M26.3385 41.898C27.1213 40.7306 28.7077 40.4151 29.8819 41.1934L30.0352 41.295C31.2094 42.0733 31.5267 43.6506 30.7439 44.8179C29.9611 45.9853 28.3747 46.3008 27.2005 45.5225L27.0472 45.4209C25.873 44.6427 25.5557 43.0654 26.3385 41.898Z" fill="white"/>
<path fill-rule="evenodd" clip-rule="evenodd" d="M43.2005 28.9103C44.1984 29.9024 44.1984 31.5109 43.2005 32.503L39.7255 35.958C38.7276 36.9501 37.1098 36.9501 36.1119 35.958C35.1141 34.9659 35.1141 33.3574 36.1119 32.3653L39.5869 28.9103C40.5848 27.9182 42.2026 27.9182 43.2005 28.9103Z" fill="white"/>
<path fill-rule="evenodd" clip-rule="evenodd" d="M43.2516 16.132C44.2494 17.1241 44.2494 18.7326 43.2516 19.7247L17.5722 45.2559C16.5743 46.248 14.9565 46.248 13.9586 45.2559C12.9607 44.2638 12.9607 42.6553 13.9586 41.6632L39.638 16.132C40.6359 15.1399 42.2537 15.1399 43.2516 16.132Z" fill="white"/>
<path fill-rule="evenodd" clip-rule="evenodd" d="M38.3968 8.28216C39.3947 9.27425 39.3947 10.8828 38.3968 11.8748L23.6279 26.5584C22.6301 27.5505 21.0122 27.5505 20.0144 26.5584C19.0165 25.5664 19.0165 23.9579 20.0144 22.9658L34.7833 8.28216C35.7811 7.29006 37.399 7.29006 38.3968 8.28216Z" fill="white"/>
<path fill-rule="evenodd" clip-rule="evenodd" d="M30.6023 3.3017C31.6008 4.29313 31.6019 5.90163 30.6047 6.89439L11.6198 25.7951C10.6226 26.7878 9.00479 26.7889 8.00626 25.7975C7.00773 24.8061 7.00665 23.1976 8.00383 22.2048L26.9887 3.30412C27.9859 2.31136 29.6038 2.31027 30.6023 3.3017Z" fill="white"/>
<path fill-rule="evenodd" clip-rule="evenodd" d="M11.8006 9.35227C12.7967 10.3461 12.7939 11.9546 11.7944 12.945L4.35883 20.3122C3.35926 21.3025 1.74142 21.2998 0.745284 20.306C-0.250852 19.3122 -0.248067 17.7037 0.751504 16.7133L8.18704 9.34608C9.18661 8.3557 10.8045 8.35847 11.8006 9.35227Z" fill="white"/>
<path fill-rule="evenodd" clip-rule="evenodd" d="M16.3531 2C17.7643 2 18.9083 3.13738 18.9083 4.54042V4.79446C18.9083 6.19749 17.7643 7.33487 16.3531 7.33487C14.9419 7.33487 13.7979 6.19749 13.7979 4.79446V4.54042C13.7979 3.13738 14.9419 2 16.3531 2Z" fill="white"/>
<path d="M56.48 39H52.88V10.44H68.84V13.6H56.48V23.72H68.08V26.88H56.48V39ZM72.3822 39V8.44H75.5022V39H72.3822ZM87.5881 39.48C85.3215 39.48 83.5348 38.84 82.2281 37.56C80.9481 36.2533 80.3081 34.4667 80.3081 32.2V22.2H83.4281V32.12C83.4281 35.1067 84.8148 36.6 87.5881 36.6C90.3615 36.6 91.7481 35.1067 91.7481 32.12V22.2H94.8681V32.2C94.8681 34.4667 94.2148 36.2533 92.9081 37.56C91.6281 38.84 89.8548 39.48 87.5881 39.48ZM120.639 39H116.559L108.999 26.6L101.319 39H97.5194L106.999 24.12L98.1194 10.44H102.119L109.119 21.64L116.159 10.44H119.959L111.119 24.04L120.639 39ZM129.317 22.2V24.84L126.717 24.8V39H123.597V24.8L121.197 24.84V22.2L123.597 22.24V13.8H126.717V22.24L129.317 22.2ZM132.263 39V22.2H135.383L135.303 24.84C135.676 23.88 136.25 23.1333 137.023 22.6C137.796 22.0667 138.663 21.8 139.623 21.8C141.063 21.8 142.196 22.4133 143.023 23.64L141.223 26.24C140.743 25.3333 140.036 24.88 139.103 24.88C137.956 24.88 137.05 25.4267 136.383 26.52C135.716 27.5867 135.383 29.0133 135.383 30.8V39H132.263ZM152.682 36.8C154.842 36.8 156.629 36 158.042 34.4L160.002 36.52C158.029 38.5467 155.509 39.56 152.442 39.56C149.882 39.56 147.816 38.7467 146.242 37.12C144.696 35.4667 143.922 33.2933 143.922 30.6C143.922 27.9067 144.696 25.7467 146.242 24.12C147.789 22.4667 149.829 21.64 152.362 21.64C154.789 21.64 156.749 22.4933 158.242 24.2C159.762 25.88 160.536 28.12 160.562 30.92H147.082C147.136 32.76 147.656 34.2 148.642 35.24C149.629 36.28 150.976 36.8 152.682 36.8ZM152.362 24.4C151.509 24.4 150.736 24.56 150.042 24.88C149.376 25.1733 148.802 25.6133 148.322 26.2C147.869 26.7867 147.536 27.4933 147.322 28.32H157.282C157.069 27.0667 156.536 26.1067 155.682 25.44C154.829 24.7467 153.722 24.4 152.362 24.4ZM164.49 39V22.2H167.61L167.57 24.72C168.69 22.72 170.503 21.72 173.01 21.72C174.236 21.72 175.29 22.04 176.17 22.68C177.05 23.2933 177.663 24.1333 178.01 25.2C179.29 22.88 181.25 21.72 183.89 21.72C185.703 21.72 187.09 22.3067 188.05 23.48C189.01 24.6533 189.49 26.3067 189.49 28.44V39H186.37V28.92C186.37 27.5067 186.09 26.4267 185.53 25.68C184.97 24.9333 184.156 24.56 183.09 24.56C181.756 24.56 180.663 25.0533 179.81 26.04C178.983 27 178.57 28.2133 178.57 29.68V39H175.45V28.92C175.45 27.5067 175.156 26.4267 174.57 25.68C174.01 24.9333 173.196 24.56 172.13 24.56C170.796 24.56 169.703 25.0667 168.85 26.08C168.023 27.0933 167.61 28.3867 167.61 29.96V39H164.49ZM202.174 36.8C204.334 36.8 206.121 36 207.534 34.4L209.494 36.52C207.521 38.5467 205.001 39.56 201.934 39.56C199.374 39.56 197.308 38.7467 195.734 37.12C194.188 35.4667 193.414 33.2933 193.414 30.6C193.414 27.9067 194.188 25.7467 195.734 24.12C197.281 22.4667 199.321 21.64 201.854 21.64C204.281 21.64 206.241 22.4933 207.734 24.2C209.254 25.88 210.028 28.12 210.054 30.92H196.574C196.628 32.76 197.148 34.2 198.134 35.24C199.121 36.28 200.468 36.8 202.174 36.8ZM201.854 24.4C201.001 24.4 200.228 24.56 199.534 24.88C198.868 25.1733 198.294 25.6133 197.814 26.2C197.361 26.7867 197.028 27.4933 196.814 28.32H206.774C206.561 27.0667 206.028 26.1067 205.174 25.44C204.321 24.7467 203.214 24.4 201.854 24.4Z" fill="white"/>
</svg>
